<svg width="36" height="35" viewBox="0 0 36 35" fill="none" xmlns="http://www.w3.org/2000/svg">
<path d="M17.8421 0C8.19375 0 0.394775 7.8225 0.394775 17.5C0.394775 27.1775 8.19375 35 17.8421 35C27.4905 35 35.2895 27.1775 35.2895 17.5C35.2895 7.8225 27.4905 0 17.8421 0ZM25.3445 25.025C25.1831 25.1872 24.9914 25.3159 24.7803 25.4038C24.5692 25.4916 24.343 25.5368 24.1145 25.5368C23.886 25.5368 23.6597 25.4916 23.4486 25.4038C23.2376 25.3159 23.0459 25.1872 22.8844 25.025L17.8421 19.9675L12.7999 25.025C12.4736 25.3522 12.0312 25.536 11.5698 25.536C11.1085 25.536 10.666 25.3522 10.3398 25.025C10.0136 24.6978 9.83028 24.254 9.83028 23.7913C9.83028 23.5621 9.87527 23.3352 9.96269 23.1235C10.0501 22.9119 10.1782 22.7195 10.3398 22.5575L15.3821 17.5L10.3398 12.4425C10.0136 12.1153 9.83028 11.6715 9.83028 11.2087C9.83028 10.746 10.0136 10.3022 10.3398 9.975C10.666 9.64779 11.1085 9.46396 11.5698 9.46396C12.0312 9.46396 12.4736 9.64779 12.7999 9.975L17.8421 15.0325L22.8844 9.975C23.046 9.81298 23.2377 9.68446 23.4488 9.59678C23.6598 9.50909 23.886 9.46396 24.1145 9.46396C24.3429 9.46396 24.5691 9.50909 24.7802 9.59678C24.9912 9.68446 25.183 9.81298 25.3445 9.975C25.506 10.137 25.6342 10.3294 25.7216 10.541C25.809 10.7527 25.854 10.9796 25.854 11.2087C25.854 11.4379 25.809 11.6648 25.7216 11.8765C25.6342 12.0881 25.506 12.2805 25.3445 12.4425L20.3022 17.5L25.3445 22.5575C26.0075 23.2225 26.0075 24.3425 25.3445 25.025Z" fill="#5B6FF6"/>
</svg>
